<svg xmlns="http://www.w3.org/2000/svg" width="32" height="32" fill="#00f" fill-rule="evenodd" xmlns:v="https://vecta.io/nano"><path d="M12.088 29.562V32h-.947q-3.805 0-5.104-1.253-1.284-1.253-1.284-4.995v-4.047q0-2.557-.825-3.539-.825-.982-2.995-.982H0v-2.421h.932q2.185 0 2.995-.965.825-.982.825-3.505V6.231q0-3.742 1.284-4.978Q7.335 0 11.14 0h.947v2.421h-1.039q-2.155 0-2.812.745-.657.745-.657 3.132v4.199q0 2.658-.703 3.86-.688 1.202-2.369 1.625 1.696.457 2.384 1.659.688 1.202.688 3.843v4.199q0 2.387.657 3.132.657.745 2.812.745zm7.824 0h1.07q2.139 0 2.781-.728.657-.728.657-3.149v-4.199q0-2.641.688-3.843.688-1.202 2.384-1.659-1.696-.423-2.384-1.625-.688-1.202-.688-3.86V6.298q0-2.404-.657-3.132-.642-.745-2.781-.745h-1.07V0h.963q3.805 0 5.074 1.253 1.284 1.236 1.284 4.978v4.063q0 2.523.825 3.505.825.965 2.995.965H32v2.421h-.947q-2.17 0-2.995.982-.825.982-.825 3.539v4.047q0 3.742-1.284 4.995Q24.68 32 20.875 32h-.963z"/></svg>
