<svg xmlns="http://www.w3.org/2000/svg" viewBox="0 0 24 24"><title>products-gift-tag</title><path d="M19.732 23.979c-.43 0-.835-.167-1.139-.47l-3.873-3.873c-.304-.304-.471-.708-.472-1.138v-2.657c0-.111.012-.222.036-.332l-1.499-1.499c-.292-.292-.292-.768 0-1.061.142-.142.33-.22.53-.22s.389.078.53.22l1.401 1.4c.192-.079.399-.12.612-.12h2.656c.43 0 .834.167 1.139.471l3.875 3.874c.628.628.628 1.65 0 2.277l-2.658 2.656c-.303.305-.708.472-1.138.472zm-.078-1.532c.027.027.057.032.078.032.017 0 .05-.004.078-.032l2.658-2.656c.028-.028.032-.061.032-.078s-.004-.05-.032-.078l-3.875-3.873c-.021-.021-.048-.032-.079-.032H15.86c-.031 0-.058.011-.079.032-.021.021-.032.047-.032.078v2.657c0 .03.011.057.033.078l3.872 3.872z"/><path d="M2.999 17.98c-.827 0-1.5-.673-1.5-1.5v-6c-.827 0-1.5-.673-1.5-1.5V6.73c0-.827.673-1.5 1.5-1.5h3.888C5 4.989 4.626 4.728 4.27 4.449c-.025-.019-.047-.04-.069-.062-.813-.812-1.208-1.547-1.207-2.246.001-.535.222-1.015.676-1.466.452-.449.948-.677 1.472-.677.695 0 1.428.395 2.242 1.209.021.021.041.044.06.068.62.79 1.141 1.648 1.555 2.56.414-.911.934-1.77 1.554-2.56.019-.024.039-.047.061-.069.812-.812 1.546-1.207 2.241-1.207.524 0 1.02.228 1.472.677.454.451.675.93.676 1.466.001.699-.394 1.434-1.208 2.248-.022.022-.044.041-.066.059-.357.28-.731.541-1.119.782h3.888c.827 0 1.5.673 1.5 1.5v2.25c0 .827-.673 1.5-1.5 1.5v1.5c0 .414-.336.75-.75.75s-.75-.336-.75-.75v-1.5h-5.25v6h2.25c.414 0 .75.336.75.75s-.336.75-.75.75H2.999zm0-1.5h5.25v-6h-5.25v6zm13.5-7.5V6.73h-6.75v2.25h6.75zm-15 0h6.75V6.73h-6.75v2.25zm3.732-5.684c.784.609 1.637 1.107 2.546 1.485-.378-.908-.876-1.761-1.485-2.544-.644-.636-1.003-.732-1.16-.732-.157 0-.257.089-.405.235-.205.203-.233.318-.233.404 0 .122.072.478.737 1.152zm6.474-1.059c-.609.784-1.107 1.637-1.485 2.545.908-.378 1.762-.876 2.546-1.485.665-.674.737-1.031.737-1.153 0-.085-.028-.2-.233-.404-.147-.146-.248-.235-.405-.235-.157 0-.515.095-1.16.732z"/></svg>