<svg xmlns="http://www.w3.org/2000/svg" viewBox="0 0 24 24"><defs><style>.a{fill:none;stroke:#000;stroke-linecap:round;stroke-linejoin:round}</style></defs><path class="a" d="M16.966 4.787a1.1 1.1 0 0 1 .534.944v4.639L12 13.908 6.5 10.37V5.731a1.1 1.1 0 0 1 .534-.944l4.4-2.64a1.1 1.1 0 0 1 1.132 0zM12 8.408v5.5"/><path class="a" d="M17.5 17.208l-5.5-3.3 5.5-3.538 5 3.213a1.1 1.1 0 0 1 .5.925v4.062a1.1 1.1 0 0 1-.5.925l-4.4 2.83a1.1 1.1 0 0 1-1.19 0L12 19.17v-5.262M17.5 17.208V22.5M12 13.908v5.262l-4.9 3.155a1.1 1.1 0 0 1-1.19 0l-4.4-2.83A1.1 1.1 0 0 1 1 18.57v-4.062a1.1 1.1 0 0 1 .5-.925l5-3.213 5.5 3.538-5.5 3.3M6.5 17.208l-5.369-3.221M6.5 17.208V22.5M12 8.408L6.641 5.192M17.359 5.192L12 8.408M22.869 13.987L17.5 17.208"/></svg>