<svg xmlns="http://www.w3.org/2000/svg" viewBox="0 0 24 24"><defs><style>.a{fill:none;stroke:#000;stroke-linecap:round;stroke-linejoin:round}</style></defs><path class="a" d="M19.5 8v2M20.5 9h-2M22.5 5v2M23.5 6h-2M19 23h3.856a.644.644 0 0 0 .565-.951l-2.872-6.019a.5.5 0 0 1-.049-.215V12.5a.5.5 0 0 0-.5-.5h-2a.5.5 0 0 0-.5.5v3.315a.5.5 0 0 1-.049.215l-2.872 6.019a.644.644 0 0 0 .565.951H19M9.942 15H6.333a6.578 6.578 0 0 0 .9-3h1.8a6.565 6.565 0 0 0 .909 3zM5.238 15h5.799"/><rect class="a" x=".5" y="1" width="15" height="11" rx="1" ry="1"/><path class="a" d="M.5 9h15M15.557 20h6.886"/></svg>