<svg xmlns="http://www.w3.org/2000/svg" viewBox="0 0 24 24"><path d="M5.25 20.996c-1.241 0-2.25-1.009-2.25-2.25v-16.5c0-1.241 1.009-2.25 2.25-2.25h16.5c1.241 0 2.25 1.009 2.25 2.25v16.5c0 1.241-1.009 2.25-2.25 2.25H5.25zm0-19.5c-.414 0-.75.336-.75.75v16.5c0 .414.336.75.75.75h16.5c.414 0 .75-.336.75-.75v-16.5c0-.414-.336-.75-.75-.75H5.25z"/><path d="M2.25 23.996c-1.241 0-2.25-1.009-2.25-2.25v-18c0-.414.336-.75.75-.75s.75.337.75.75v18c0 .414.336.75.75.75h18c.414 0 .75.336.75.75s-.336.75-.75.75h-18zM8.25 7.496c-.414 0-.75-.336-.75-.75s.336-.75.75-.75h10.5c.414 0 .75.336.75.75s-.336.75-.75.75H8.25z"/><path d="M8.25 10.496c-.414 0-.75-.336-.75-.75s.336-.75.75-.75h10.5c.414 0 .75.336.75.75s-.336.75-.75.75H8.25zM8.25 13.496c-.414 0-.75-.336-.75-.75s.336-.75.75-.75h7.5c.414 0 .75.336.75.75s-.336.75-.75.75h-7.5z"/></svg>