<svg width="24" height="24" fill="none" xmlns="http://www.w3.org/2000/svg">
  <g clip-path="url(#a)">
    <path fill-rule="evenodd" clip-rule="evenodd" d="M19.593 0a4.39 4.39 0 0 1 3.126 1.279l.002.002a4.388 4.388 0 0 1-.039 6.232L8.185 22.01a.75.75 0 0 1-.344.196l-6.905 1.77a.75.75 0 0 1-.912-.912l1.77-6.905a.75.75 0 0 1 .196-.344L16.487 1.318A4.388 4.388 0 0 1 19.593 0Zm-2.988 3.32L3.195 16.73 1.792 22.21l5.479-1.405 13.41-13.41-4.075-4.073Zm5.133 3.012-4.07-4.07a2.89 2.89 0 0 1 3.992.079 2.887 2.887 0 0 1 .078 3.991Z" fill="#000"/>
  </g>
  <defs>
    <clipPath id="a">
      <path fill="#fff" d="M0 0h24v24H0z"/>
    </clipPath>
  </defs>
</svg>
