<svg width="24" height="24" viewBox="0 0 24 24" xmlns="http://www.w3.org/2000/svg"><title>Group 10</title><g stroke="#000" fill="none" fill-rule="evenodd"><path stroke-opacity=".012" stroke-width="0" d="M0 0h24v24H0z"/><g stroke-linecap="round" stroke-linejoin="round"><path d="M15.7 22.3l-3.335.953c-.189.054-.352.011-.49-.127-.14-.139-.182-.302-.128-.491L12.7 19.3l7.093-7.093c.905-.949 1.88-1.026 2.923-.233.488.397.749.91.781 1.537.033.628-.173 1.165-.618 1.61L15.7 22.3zM18.979 13.021l3 3M12.7 19.3l3 3M11.75 4.75c0 1.174-.415 2.175-1.245 3.005C9.675 8.585 8.674 9 7.5 9s-2.175-.415-3.005-1.245c-.83-.83-1.245-1.831-1.245-3.005s.415-2.175 1.245-3.005C5.325.915 6.326.5 7.5.5s2.175.415 3.005 1.245c.83.83 1.245 1.831 1.245 3.005zM10.5 17.5H.5c0-3.582 1.729-5.836 5.188-6.763 3.46-.927 6.085.16 7.875 3.263"/></g></g></svg>