<svg width="24" height="24" viewBox="0 0 24 24" xmlns="http://www.w3.org/2000/svg"><title>Group</title><g fill="#000" fill-rule="nonzero"><path d="M12 17.25c-2.895 0-5.25-2.355-5.25-5.25S9.105 6.75 12 6.75s5.25 2.355 5.25 5.25-2.355 5.25-5.25 5.25zm0-9c-2.068 0-3.75 1.682-3.75 3.75s1.682 3.75 3.75 3.75 3.75-1.682 3.75-3.75S14.068 8.25 12 8.25zM12 5.25c-.414 0-.75-.336-.75-.75V.75c0-.414.336-.75.75-.75s.75.336.75.75V4.5c0 .414-.336.75-.75.75zM12 24c-.414 0-.75-.336-.75-.75V19.5c0-.414.336-.75.75-.75s.75.336.75.75v3.75c0 .414-.336.75-.75.75zM19.5 12.75c-.414 0-.75-.336-.75-.75s.336-.75.75-.75h3.75c.414 0 .75.336.75.75s-.336.75-.75.75H19.5zM.75 12.75c-.414 0-.75-.336-.75-.75s.336-.75.75-.75H4.5c.414 0 .75.336.75.75s-.336.75-.75.75H.75zM17.25 7.5c-.2 0-.389-.078-.53-.22-.142-.141-.22-.33-.22-.53s.078-.389.22-.53l3-3c.141-.142.33-.22.53-.22s.389.078.53.22c.142.141.22.33.22.53s-.078.389-.22.53l-3 3c-.141.142-.33.22-.53.22zM3.75 21c-.2 0-.389-.078-.53-.22-.292-.292-.292-.768 0-1.061l3-3c.142-.142.33-.22.53-.22s.389.078.53.22c.292.292.292.768 0 1.061l-3 3c-.141.142-.33.22-.53.22zM20.25 21c-.2 0-.389-.078-.53-.22l-3-3c-.292-.292-.292-.768 0-1.061.142-.142.33-.22.53-.22s.389.078.53.22l3 3c.292.292.292.768 0 1.061-.141.142-.33.22-.53.22zM6.75 7.5c-.2 0-.389-.078-.53-.22l-3-3C3.078 4.139 3 3.95 3 3.75s.078-.389.22-.53c.141-.142.33-.22.53-.22s.389.078.53.22l3 3c.142.141.22.33.22.53s-.078.389-.22.53c-.141.142-.33.22-.53.22z"/></g></svg>