<svg xmlns="http://www.w3.org/2000/svg" viewBox="0 0 24 24"><path d="M.75 20.957c-.414 0-.75-.336-.75-.75s.336-.75.75-.75h22.5c.414 0 .75.336.75.75s-.336.75-.75.75H.75zM12 5.957c-.414 0-.75-.336-.75-.75v-1.5c0-.414.336-.75.75-.75s.75.336.75.75v1.5c0 .414-.336.75-.75.75zM18.894 8.812c-.201 0-.389-.078-.531-.22-.292-.292-.292-.768 0-1.06l1.061-1.06c.142-.142.33-.219.531-.219s.389.078.531.22c.292.292.292.768 0 1.06l-1.061 1.06c-.143.141-.331.219-.531.219zM21.75 15.707c-.414 0-.75-.336-.75-.75s.336-.75.75-.75h1.5c.414 0 .75.336.75.75s-.336.75-.75.75h-1.5zM.75 15.707c-.414 0-.75-.336-.75-.75s.336-.75.75-.75h1.5c.414 0 .75.336.75.75s-.336.75-.75.75H.75zM5.106 8.812c-.2 0-.389-.078-.53-.22l-1.061-1.06c-.142-.142-.22-.33-.22-.53s.078-.389.219-.53c.141-.142.33-.22.53-.22s.389.078.53.22l1.061 1.06c.293.292.293.768 0 1.061-.14.141-.328.219-.529.219zM18.337 17.957c-.089 0-.176-.015-.259-.046-.188-.069-.338-.207-.422-.389-.084-.182-.093-.385-.023-.573.552-1.504.485-3.134-.188-4.588-.674-1.454-1.873-2.559-3.378-3.111-.665-.244-1.357-.367-2.06-.367-2.51 0-4.777 1.581-5.64 3.934-.489 1.333-.489 2.801 0 4.133.069.188.061.392-.024.573s-.234.32-.422.389c-.083.031-.17.046-.258.046-.313 0-.596-.198-.704-.492-.611-1.666-.611-3.5 0-5.166 1.079-2.941 3.912-4.917 7.049-4.917.879 0 1.745.154 2.576.459 1.881.69 3.38 2.071 4.222 3.889.842 1.818.926 3.854.236 5.735-.109.293-.392.491-.705.491z"/></svg>