<svg xmlns="http://www.w3.org/2000/svg" viewBox="0 0 24 24"><title>view-square</title><path d="M2.25 24C1.009 24 0 22.991 0 21.75V2.25C0 1.009 1.009 0 2.25 0h19.5C22.991 0 24 1.009 24 2.25v19.5c0 1.241-1.009 2.25-2.25 2.25H2.25zm0-22.5c-.414 0-.75.336-.75.75v19.5c0 .414.336.75.75.75h19.5c.414 0 .75-.336.75-.75V2.25c0-.414-.336-.75-.75-.75H2.25z"/><path d="M12 18c-2.739 0-5.442-1.375-8.264-4.204-.983-1.012-.985-2.59-.007-3.597C6.557 7.364 9.26 5.989 12 5.989c2.736 0 5.44 1.375 8.266 4.204.984 1.012.985 2.59.007 3.597C17.444 16.624 14.739 18 12 18zm0-10.511c-2.32 0-4.676 1.23-7.2 3.761-.403.416-.403 1.074.005 1.494C7.325 15.27 9.68 16.5 12 16.5c2.321 0 4.677-1.231 7.204-3.763.403-.415.401-1.071-.007-1.492C16.673 8.719 14.318 7.489 12 7.489z"/><path d="M12 14.991c-1.654 0-3-1.346-3-3s1.346-3 3-3 3 1.346 3 3-1.346 3-3 3zm0-4.5c-.827 0-1.5.673-1.5 1.5s.673 1.5 1.5 1.5 1.5-.673 1.5-1.5-.673-1.5-1.5-1.5z"/></svg>